<svg width="640" height="420" viewBox="0 0 640 420" fill="none" xmlns="http://www.w3.org/2000/svg">
  <rect x="10" y="10" width="620" height="400" rx="30" fill="#F8FBFD" stroke="#D7E4EC"/>
  <rect x="56" y="78" width="148" height="46" rx="23" fill="#FFFFFF" stroke="#D7E4EC"/>
  <rect x="56" y="146" width="148" height="46" rx="23" fill="#FFFFFF" stroke="#D7E4EC"/>
  <rect x="56" y="214" width="148" height="46" rx="23" fill="#FFFFFF" stroke="#D7E4EC"/>
  <rect x="56" y="282" width="148" height="46" rx="23" fill="#FFFFFF" stroke="#D7E4EC"/>
  <text x="86" y="106" fill="#102331" font-family="Arial, sans-serif" font-size="13" font-weight="700">Time-series</text>
  <text x="86" y="174" fill="#102331" font-family="Arial, sans-serif" font-size="13" font-weight="700">Files</text>
  <text x="86" y="242" fill="#102331" font-family="Arial, sans-serif" font-size="13" font-weight="700">Control systems</text>
  <text x="86" y="310" fill="#102331" font-family="Arial, sans-serif" font-size="13" font-weight="700">Model hubs</text>
  <path d="M204 101H266" stroke="#009FDF" stroke-width="3" stroke-linecap="round"/>
  <path d="M204 169H266" stroke="#009FDF" stroke-width="3" stroke-linecap="round"/>
  <path d="M204 237H266" stroke="#009FDF" stroke-width="3" stroke-linecap="round"/>
  <path d="M204 305H266" stroke="#009FDF" stroke-width="3" stroke-linecap="round"/>
  <rect x="266" y="102" width="10" height="204" rx="5" fill="#009FDF" fill-opacity="0.14"/>
  <rect x="304" y="124" width="248" height="160" rx="28" fill="#EAF5FA" stroke="#D0E2EC"/>
  <text x="338" y="160" fill="#009FDF" font-family="Arial, sans-serif" font-size="14" font-weight="700">Unified object model</text>
  <rect x="338" y="190" width="76" height="28" rx="14" fill="#FFFFFF" stroke="#D7E4EC"/>
  <rect x="424" y="190" width="82" height="28" rx="14" fill="#FFFFFF" stroke="#D7E4EC"/>
  <rect x="338" y="232" width="92" height="28" rx="14" fill="#FFFFFF" stroke="#D7E4EC"/>
  <rect x="440" y="232" width="74" height="28" rx="14" fill="#FFFFFF" stroke="#D7E4EC"/>
  <text x="360" y="208" fill="#102331" font-family="Arial, sans-serif" font-size="11">Datasets</text>
  <text x="448" y="208" fill="#102331" font-family="Arial, sans-serif" font-size="11">Channels</text>
  <text x="366" y="250" fill="#102331" font-family="Arial, sans-serif" font-size="11">Findings</text>
  <text x="462" y="250" fill="#102331" font-family="Arial, sans-serif" font-size="11">Runs</text>
</svg>
