<svg width="640" height="420" viewBox="0 0 640 420" fill="none" xmlns="http://www.w3.org/2000/svg">
  <rect x="10" y="10" width="620" height="400" rx="30" fill="#F9FBFC" stroke="#D7E4EC"/>
  <rect x="58" y="82" width="196" height="248" rx="28" fill="#FFFFFF" stroke="#D7E4EC"/>
  <rect x="90" y="116" width="132" height="22" rx="11" fill="#EAF5FA" stroke="#D0E2EC"/>
  <rect x="90" y="152" width="132" height="22" rx="11" fill="#EAF5FA" stroke="#D0E2EC"/>
  <rect x="90" y="188" width="132" height="22" rx="11" fill="#EAF5FA" stroke="#D0E2EC"/>
  <rect x="90" y="224" width="132" height="22" rx="11" fill="#EAF5FA" stroke="#D0E2EC"/>
  <rect x="90" y="260" width="132" height="22" rx="11" fill="#EAF5FA" stroke="#D0E2EC"/>
  <path d="M222 127H286" stroke="#009FDF" stroke-width="3" stroke-linecap="round"/>
  <path d="M222 163H286" stroke="#009FDF" stroke-width="3" stroke-linecap="round"/>
  <path d="M222 199H286" stroke="#009FDF" stroke-width="3" stroke-linecap="round"/>
  <path d="M222 235H286" stroke="#009FDF" stroke-width="3" stroke-linecap="round"/>
  <path d="M222 271H286" stroke="#009FDF" stroke-width="3" stroke-linecap="round"/>
  <rect x="286" y="120" width="32" height="160" rx="16" fill="#009FDF" fill-opacity="0.14"/>
  <rect x="350" y="82" width="230" height="248" rx="28" fill="#F8FBFD" stroke="#D7E4EC"/>
  <text x="384" y="118" fill="#009FDF" font-family="Arial, sans-serif" font-size="14" font-weight="700">Shared intelligence layer</text>
  <rect x="384" y="144" width="162" height="56" rx="18" fill="#FFFFFF" stroke="#D7E4EC"/>
  <text x="406" y="167" fill="#102331" font-family="Arial, sans-serif" font-size="12" font-weight="700">Cross-system finding</text>
  <text x="406" y="185" fill="#7B8792" font-family="Arial, sans-serif" font-size="11">Pattern repeated in logs and telemetry</text>
  <rect x="384" y="218" width="72" height="20" rx="10" fill="#009FDF" fill-opacity="0.16"/>
  <rect x="468" y="218" width="72" height="20" rx="10" fill="#F18F1F" fill-opacity="0.18"/>
  <rect x="384" y="252" width="156" height="14" rx="7" fill="#102331" fill-opacity="0.08"/>
  <rect x="384" y="278" width="128" height="14" rx="7" fill="#102331" fill-opacity="0.08"/>
  <text x="88" y="364" fill="#102331" font-family="Arial, sans-serif" font-size="13" font-weight="700">Streams</text>
  <text x="166" y="364" fill="#102331" font-family="Arial, sans-serif" font-size="13" font-weight="700">Logs</text>
  <text x="226" y="364" fill="#102331" font-family="Arial, sans-serif" font-size="13" font-weight="700">Pipelines</text>
  <text x="384" y="364" fill="#102331" font-family="Arial, sans-serif" font-size="13" font-weight="700">One operational view</text>
</svg>
