<svg width="640" height="420" viewBox="0 0 640 420" fill="none" xmlns="http://www.w3.org/2000/svg">
  <rect x="10" y="10" width="620" height="400" rx="30" fill="#F9FBFC" stroke="#D7E4EC"/>
  <rect x="58" y="74" width="248" height="272" rx="28" fill="#FFFFFF" stroke="#D7E4EC"/>
  <circle cx="126" cy="128" r="24" fill="#EAF5FA" stroke="#D0E2EC"/>
  <circle cx="238" cy="116" r="20" fill="#EAF5FA" stroke="#D0E2EC"/>
  <circle cx="220" cy="236" r="22" fill="#EAF5FA" stroke="#D0E2EC"/>
  <circle cx="118" cy="258" r="28" fill="#EAF5FA" stroke="#D0E2EC"/>
  <circle cx="178" cy="188" r="20" fill="#009FDF" fill-opacity="0.16" stroke="#009FDF"/>
  <path d="M126 128L178 188L238 116" stroke="#009FDF" stroke-width="3" stroke-linecap="round"/>
  <path d="M178 188L220 236L118 258" stroke="#009FDF" stroke-width="3" stroke-linecap="round"/>
  <circle cx="220" cy="236" r="7" fill="#F18F1F"/>
  <rect x="342" y="74" width="240" height="272" rx="28" fill="#F8FBFD" stroke="#D7E4EC"/>
  <text x="376" y="112" fill="#009FDF" font-family="Arial, sans-serif" font-size="14" font-weight="700">Distributed view</text>
  <rect x="376" y="138" width="172" height="84" rx="22" fill="#FFFFFF" stroke="#D7E4EC"/>
  <path d="M396 194V164H438V194" stroke="#102331" stroke-width="2.5" stroke-linecap="round" stroke-linejoin="round"/>
  <path d="M452 194L474 154L496 194" stroke="#102331" stroke-width="2.5" stroke-linecap="round" stroke-linejoin="round"/>
  <path d="M518 194V158" stroke="#102331" stroke-width="2.5" stroke-linecap="round"/>
  <path d="M396 164H438" stroke="#009FDF" stroke-width="3" stroke-linecap="round"/>
  <path d="M452 178H496" stroke="#F18F1F" stroke-width="3" stroke-linecap="round"/>
  <rect x="376" y="238" width="172" height="54" rx="18" fill="#EAF5FA" stroke="#D0E2EC"/>
  <text x="398" y="261" fill="#102331" font-family="Arial, sans-serif" font-size="12" font-weight="700">Cascade risk rising</text>
  <text x="398" y="279" fill="#7B8792" font-family="Arial, sans-serif" font-size="11">Grid state changed across assets</text>
  <text x="80" y="370" fill="#102331" font-family="Arial, sans-serif" font-size="13" font-weight="700">Networks</text>
  <text x="184" y="370" fill="#102331" font-family="Arial, sans-serif" font-size="13" font-weight="700">Assets</text>
  <text x="272" y="370" fill="#102331" font-family="Arial, sans-serif" font-size="13" font-weight="700">Drift</text>
</svg>
