<svg width="640" height="420" viewBox="0 0 640 420" fill="none" xmlns="http://www.w3.org/2000/svg">
  <rect x="10" y="10" width="620" height="400" rx="30" fill="#F8FBFD" stroke="#D7E4EC"/>
  <rect x="70" y="74" width="500" height="272" rx="30" fill="#FFFFFF" stroke="#D7E4EC"/>
  <rect x="102" y="110" width="180" height="74" rx="22" fill="#F7FAFC" stroke="#D7E4EC"/>
  <rect x="102" y="202" width="180" height="74" rx="22" fill="#F7FAFC" stroke="#D7E4EC"/>
  <rect x="300" y="110" width="238" height="166" rx="24" fill="#EAF5FA" stroke="#CFE2EC"/>
  <text x="126" y="140" fill="#009FDF" font-family="Arial, sans-serif" font-size="12" font-weight="700">Organizations</text>
  <text x="126" y="232" fill="#009FDF" font-family="Arial, sans-serif" font-size="12" font-weight="700">Audit logs</text>
  <text x="332" y="142" fill="#009FDF" font-family="Arial, sans-serif" font-size="13" font-weight="700">Platform model</text>
  <rect x="126" y="154" width="108" height="12" rx="6" fill="#102331" fill-opacity="0.1"/>
  <rect x="126" y="246" width="96" height="12" rx="6" fill="#102331" fill-opacity="0.1"/>
  <rect x="332" y="166" width="98" height="24" rx="12" fill="#FFFFFF" stroke="#D7E4EC"/>
  <rect x="444" y="166" width="76" height="24" rx="12" fill="#FFFFFF" stroke="#D7E4EC"/>
  <rect x="332" y="202" width="88" height="24" rx="12" fill="#FFFFFF" stroke="#D7E4EC"/>
  <rect x="434" y="202" width="86" height="24" rx="12" fill="#FFFFFF" stroke="#D7E4EC"/>
  <rect x="332" y="238" width="74" height="24" rx="12" fill="#FFFFFF" stroke="#D7E4EC"/>
  <text x="352" y="182" fill="#102331" font-family="Arial, sans-serif" font-size="11">Jobs</text>
  <text x="466" y="182" fill="#102331" font-family="Arial, sans-serif" font-size="11">Files</text>
  <text x="354" y="218" fill="#102331" font-family="Arial, sans-serif" font-size="11">Users</text>
  <text x="452" y="218" fill="#102331" font-family="Arial, sans-serif" font-size="11">Alerts</text>
  <text x="354" y="254" fill="#102331" font-family="Arial, sans-serif" font-size="11">Pages</text>
</svg>
