<svg width="720" height="520" viewBox="0 0 720 520" fill="none" xmlns="http://www.w3.org/2000/svg">
  <rect x="48" y="56" width="624" height="88" rx="28" fill="#0F2531" stroke="#143446"/>
  <rect x="48" y="170" width="624" height="88" rx="28" fill="#0F2531" stroke="#143446"/>
  <rect x="48" y="284" width="624" height="104" rx="28" fill="#102E3E" stroke="#184A62"/>
  <rect x="48" y="414" width="624" height="58" rx="24" fill="#0F2531" stroke="#143446"/>
  <text x="78" y="90" fill="#6BBEE3" font-family="Arial, sans-serif" font-size="14" font-weight="700">External systems</text>
  <text x="78" y="204" fill="#6BBEE3" font-family="Arial, sans-serif" font-size="14" font-weight="700">Connector layer</text>
  <text x="78" y="318" fill="#6BBEE3" font-family="Arial, sans-serif" font-size="14" font-weight="700">Anomx intelligence layer</text>
  <text x="78" y="446" fill="#6BBEE3" font-family="Arial, sans-serif" font-size="14" font-weight="700">Action layer</text>
  <rect x="78" y="104" width="92" height="24" rx="12" fill="#0B3E57"/>
  <rect x="182" y="104" width="82" height="24" rx="12" fill="#0B3E57"/>
  <rect x="276" y="104" width="92" height="24" rx="12" fill="#0B3E57"/>
  <rect x="380" y="104" width="70" height="24" rx="12" fill="#0B3E57"/>
  <rect x="462" y="104" width="68" height="24" rx="12" fill="#0B3E57"/>
  <text x="100" y="120" fill="#EAF6FB" font-family="Arial, sans-serif" font-size="11">Machines</text>
  <text x="203" y="120" fill="#EAF6FB" font-family="Arial, sans-serif" font-size="11">Sensors</text>
  <text x="300" y="120" fill="#EAF6FB" font-family="Arial, sans-serif" font-size="11">Databases</text>
  <text x="404" y="120" fill="#EAF6FB" font-family="Arial, sans-serif" font-size="11">Files</text>
  <text x="484" y="120" fill="#EAF6FB" font-family="Arial, sans-serif" font-size="11">APIs</text>
  <rect x="78" y="218" width="146" height="24" rx="12" fill="#114864"/>
  <rect x="240" y="218" width="126" height="24" rx="12" fill="#114864"/>
  <rect x="382" y="218" width="148" height="24" rx="12" fill="#114864"/>
  <text x="108" y="234" fill="#EAF6FB" font-family="Arial, sans-serif" font-size="11">Modular connectors</text>
  <text x="264" y="234" fill="#EAF6FB" font-family="Arial, sans-serif" font-size="11">Worker adapters</text>
  <text x="416" y="234" fill="#EAF6FB" font-family="Arial, sans-serif" font-size="11">Data acquisition</text>
  <rect x="84" y="336" width="122" height="30" rx="15" fill="#009FDF" fill-opacity="0.14" stroke="#0D5F84"/>
  <rect x="222" y="336" width="112" height="30" rx="15" fill="#009FDF" fill-opacity="0.14" stroke="#0D5F84"/>
  <rect x="350" y="336" width="98" height="30" rx="15" fill="#009FDF" fill-opacity="0.14" stroke="#0D5F84"/>
  <rect x="464" y="336" width="112" height="30" rx="15" fill="#F18F1F" fill-opacity="0.18" stroke="#A45E12"/>
  <text x="116" y="355" fill="#EAF6FB" font-family="Arial, sans-serif" font-size="11">Detection</text>
  <text x="260" y="355" fill="#EAF6FB" font-family="Arial, sans-serif" font-size="11">Context</text>
  <text x="385" y="355" fill="#EAF6FB" font-family="Arial, sans-serif" font-size="11">Models</text>
  <text x="499" y="355" fill="#EAF6FB" font-family="Arial, sans-serif" font-size="11">Findings</text>
  <rect x="84" y="430" width="94" height="24" rx="12" fill="#0B3E57"/>
  <rect x="192" y="430" width="88" height="24" rx="12" fill="#0B3E57"/>
  <rect x="294" y="430" width="84" height="24" rx="12" fill="#0B3E57"/>
  <rect x="392" y="430" width="98" height="24" rx="12" fill="#0B3E57"/>
  <text x="114" y="446" fill="#EAF6FB" font-family="Arial, sans-serif" font-size="11">Review</text>
  <text x="220" y="446" fill="#EAF6FB" font-family="Arial, sans-serif" font-size="11">Notify</text>
  <text x="322" y="446" fill="#EAF6FB" font-family="Arial, sans-serif" font-size="11">Report</text>
  <text x="414" y="446" fill="#EAF6FB" font-family="Arial, sans-serif" font-size="11">Automate</text>
  <path d="M360 144V170" stroke="#009FDF" stroke-width="3" stroke-linecap="round"/>
  <path d="M360 258V284" stroke="#009FDF" stroke-width="3" stroke-linecap="round"/>
  <path d="M360 388V414" stroke="#F18F1F" stroke-width="3" stroke-linecap="round"/>
</svg>
