<svg width="640" height="420" viewBox="0 0 640 420" fill="none" xmlns="http://www.w3.org/2000/svg">
  <rect x="10" y="10" width="620" height="400" rx="30" fill="#F8FBFD" stroke="#D7E4EC"/>
  <rect x="80" y="180" width="120" height="60" rx="22" fill="#FFFFFF" stroke="#D7E4EC"/>
  <rect x="260" y="86" width="124" height="60" rx="22" fill="#FFFFFF" stroke="#D7E4EC"/>
  <rect x="260" y="180" width="124" height="60" rx="22" fill="#EAF5FA" stroke="#CFE2EC"/>
  <rect x="260" y="274" width="124" height="60" rx="22" fill="#FFFFFF" stroke="#D7E4EC"/>
  <rect x="452" y="118" width="110" height="56" rx="22" fill="#FFFFFF" stroke="#D7E4EC"/>
  <rect x="452" y="246" width="110" height="56" rx="22" fill="#FFFFFF" stroke="#D7E4EC"/>
  <path d="M200 210H260" stroke="#009FDF" stroke-width="3" stroke-linecap="round"/>
  <path d="M384 116H452" stroke="#F18F1F" stroke-width="3" stroke-linecap="round"/>
  <path d="M384 210H452" stroke="#009FDF" stroke-width="3" stroke-linecap="round"/>
  <path d="M384 304H452" stroke="#F18F1F" stroke-width="3" stroke-linecap="round"/>
  <text x="118" y="216" fill="#102331" font-family="Arial, sans-serif" font-size="13" font-weight="700">Finding</text>
  <text x="298" y="122" fill="#102331" font-family="Arial, sans-serif" font-size="12" font-weight="700">Investigate</text>
  <text x="308" y="216" fill="#102331" font-family="Arial, sans-serif" font-size="12" font-weight="700">Notify</text>
  <text x="312" y="310" fill="#102331" font-family="Arial, sans-serif" font-size="12" font-weight="700">Report</text>
  <text x="486" y="154" fill="#102331" font-family="Arial, sans-serif" font-size="12" font-weight="700">Review</text>
  <text x="486" y="282" fill="#102331" font-family="Arial, sans-serif" font-size="12" font-weight="700">Automate</text>
</svg>
