<svg width="640" height="420" viewBox="0 0 640 420" fill="none" xmlns="http://www.w3.org/2000/svg">
  <rect x="10" y="10" width="620" height="400" rx="30" fill="#F9FBFC" stroke="#D7E4EC"/>
  <circle cx="194" cy="210" r="92" fill="#EAF5FA" stroke="#D0E2EC"/>
  <circle cx="194" cy="210" r="62" stroke="#009FDF" stroke-width="3" stroke-dasharray="6 8"/>
  <circle cx="194" cy="210" r="18" fill="#009FDF" fill-opacity="0.16" stroke="#009FDF"/>
  <path d="M194 118V90" stroke="#009FDF" stroke-width="3" stroke-linecap="round"/>
  <path d="M194 330V302" stroke="#009FDF" stroke-width="3" stroke-linecap="round"/>
  <path d="M102 210H74" stroke="#009FDF" stroke-width="3" stroke-linecap="round"/>
  <path d="M314 210H286" stroke="#009FDF" stroke-width="3" stroke-linecap="round"/>
  <circle cx="194" cy="90" r="8" fill="#F18F1F"/>
  <circle cx="314" cy="210" r="8" fill="#F18F1F"/>
  <circle cx="194" cy="330" r="8" fill="#F18F1F"/>
  <rect x="354" y="76" width="220" height="268" rx="28" fill="#FFFFFF" stroke="#D7E4EC"/>
  <text x="388" y="116" fill="#009FDF" font-family="Arial, sans-serif" font-size="14" font-weight="700">Research signal view</text>
  <rect x="388" y="140" width="152" height="14" rx="7" fill="#102331" fill-opacity="0.08"/>
  <rect x="388" y="170" width="160" height="54" rx="18" fill="#F8FBFD" stroke="#D7E4EC"/>
  <text x="410" y="193" fill="#102331" font-family="Arial, sans-serif" font-size="12" font-weight="700">Beamline drift</text>
  <text x="410" y="211" fill="#7B8792" font-family="Arial, sans-serif" font-size="11">Deviation across live channels</text>
  <rect x="388" y="240" width="160" height="58" rx="18" fill="#EAF5FA" stroke="#D0E2EC"/>
  <path d="M408 280C426 260 442 272 458 252C474 232 490 246 506 230C514 222 522 220 532 224" stroke="#009FDF" stroke-width="3" stroke-linecap="round"/>
  <circle cx="490" cy="246" r="7" fill="#F18F1F"/>
  <rect x="388" y="314" width="92" height="18" rx="9" fill="#009FDF" fill-opacity="0.16"/>
  <rect x="490" y="314" width="58" height="18" rx="9" fill="#F18F1F" fill-opacity="0.18"/>
  <text x="84" y="372" fill="#102331" font-family="Arial, sans-serif" font-size="13" font-weight="700">Accelerators</text>
  <text x="198" y="372" fill="#102331" font-family="Arial, sans-serif" font-size="13" font-weight="700">Experiments</text>
  <text x="304" y="372" fill="#102331" font-family="Arial, sans-serif" font-size="13" font-weight="700">Detectors</text>
</svg>
