<svg width="640" height="420" viewBox="0 0 640 420" fill="none" xmlns="http://www.w3.org/2000/svg">
  <rect x="10" y="10" width="620" height="400" rx="30" fill="#F8FBFD" stroke="#D7E4EC"/>
  <rect x="84" y="154" width="148" height="112" rx="28" fill="#EAF5FA" stroke="#CFE2EC"/>
  <text x="124" y="200" fill="#009FDF" font-family="Arial, sans-serif" font-size="13" font-weight="700">Data plane</text>
  <rect x="124" y="218" width="68" height="14" rx="7" fill="#009FDF" fill-opacity="0.16"/>
  <path d="M232 210H300" stroke="#009FDF" stroke-width="3" stroke-linecap="round"/>
  <rect x="300" y="82" width="112" height="64" rx="22" fill="#FFFFFF" stroke="#D7E4EC"/>
  <rect x="300" y="178" width="112" height="64" rx="22" fill="#FFFFFF" stroke="#D7E4EC"/>
  <rect x="300" y="274" width="112" height="64" rx="22" fill="#FFFFFF" stroke="#D7E4EC"/>
  <text x="340" y="118" fill="#102331" font-family="Arial, sans-serif" font-size="12" font-weight="700">CPU</text>
  <text x="340" y="214" fill="#102331" font-family="Arial, sans-serif" font-size="12" font-weight="700">GPU</text>
  <text x="340" y="310" fill="#102331" font-family="Arial, sans-serif" font-size="12" font-weight="700">TPU</text>
  <path d="M412 114H486" stroke="#F18F1F" stroke-width="3" stroke-linecap="round"/>
  <path d="M412 210H486" stroke="#009FDF" stroke-width="3" stroke-linecap="round"/>
  <path d="M412 306H486" stroke="#F18F1F" stroke-width="3" stroke-linecap="round"/>
  <rect x="486" y="162" width="86" height="96" rx="24" fill="#0F1722"/>
  <text x="504" y="194" fill="#F4FBFF" font-family="Arial, sans-serif" font-size="11" font-weight="700">Model run</text>
  <rect x="504" y="212" width="52" height="10" rx="5" fill="#009FDF" fill-opacity="0.32"/>
  <rect x="504" y="230" width="38" height="10" rx="5" fill="#F18F1F" fill-opacity="0.36"/>
</svg>
