<svg width="640" height="420" viewBox="0 0 640 420" fill="none" xmlns="http://www.w3.org/2000/svg">
  <rect x="10" y="10" width="620" height="400" rx="30" fill="#F9FBFC" stroke="#D7E4EC"/>
  <rect x="48" y="66" width="124" height="38" rx="19" fill="#FFFFFF" stroke="#D7E4EC"/>
  <rect x="48" y="126" width="124" height="38" rx="19" fill="#FFFFFF" stroke="#D7E4EC"/>
  <rect x="48" y="186" width="124" height="38" rx="19" fill="#FFFFFF" stroke="#D7E4EC"/>
  <rect x="48" y="246" width="124" height="38" rx="19" fill="#FFFFFF" stroke="#D7E4EC"/>
  <rect x="48" y="306" width="124" height="38" rx="19" fill="#FFFFFF" stroke="#D7E4EC"/>
  <text x="76" y="90" fill="#102331" font-family="Arial, sans-serif" font-size="13" font-weight="700">Sensors</text>
  <text x="76" y="150" fill="#102331" font-family="Arial, sans-serif" font-size="13" font-weight="700">Machines</text>
  <text x="76" y="210" fill="#102331" font-family="Arial, sans-serif" font-size="13" font-weight="700">Files</text>
  <text x="76" y="270" fill="#102331" font-family="Arial, sans-serif" font-size="13" font-weight="700">Databases</text>
  <text x="76" y="330" fill="#102331" font-family="Arial, sans-serif" font-size="13" font-weight="700">APIs</text>
  <path d="M172 85H248" stroke="#009FDF" stroke-width="3" stroke-linecap="round"/>
  <path d="M172 145H248" stroke="#009FDF" stroke-width="3" stroke-linecap="round"/>
  <path d="M172 205H248" stroke="#009FDF" stroke-width="3" stroke-linecap="round"/>
  <path d="M172 265H248" stroke="#009FDF" stroke-width="3" stroke-linecap="round"/>
  <path d="M172 325H248" stroke="#009FDF" stroke-width="3" stroke-linecap="round"/>
  <rect x="248" y="84" width="12" height="246" rx="6" fill="#009FDF" fill-opacity="0.14"/>
  <rect x="292" y="126" width="178" height="168" rx="28" fill="#EAF5FA" stroke="#D0E2EC"/>
  <text x="326" y="163" fill="#009FDF" font-family="Arial, sans-serif" font-size="14" font-weight="700">Unified connector bus</text>
  <rect x="326" y="184" width="112" height="14" rx="7" fill="#009FDF" fill-opacity="0.18"/>
  <rect x="326" y="210" width="136" height="14" rx="7" fill="#102331" fill-opacity="0.1"/>
  <rect x="326" y="236" width="96" height="14" rx="7" fill="#F18F1F" fill-opacity="0.18"/>
  <path d="M470 210H520" stroke="#F18F1F" stroke-width="3" stroke-linecap="round"/>
  <rect x="520" y="184" width="74" height="52" rx="20" fill="#FFFFFF" stroke="#D7E4EC"/>
  <text x="540" y="206" fill="#009FDF" font-family="Arial, sans-serif" font-size="11" font-weight="700">Ready</text>
  <text x="536" y="224" fill="#102331" font-family="Arial, sans-serif" font-size="12">Ingest</text>
</svg>
