<svg width="640" height="420" viewBox="0 0 640 420" fill="none" xmlns="http://www.w3.org/2000/svg">
  <rect x="10" y="10" width="620" height="400" rx="30" fill="#F8FBFD" stroke="#D7E4EC"/>
  <rect x="50" y="60" width="540" height="300" rx="28" fill="#FFFFFF" stroke="#D7E4EC"/>
  <path d="M78 272C116 260 146 212 188 212C230 212 256 294 296 294C336 294 364 116 404 116C444 116 470 254 516 254C540 254 554 240 564 228" stroke="#009FDF" stroke-width="5" stroke-linecap="round"/>
  <path d="M78 308C118 302 148 274 188 274C228 274 258 322 296 322C336 322 366 198 404 198C444 198 470 286 516 286C540 286 554 280 564 272" stroke="#D5E3EA" stroke-width="3" stroke-linecap="round"/>
  <path d="M78 238C118 232 148 174 188 174C228 174 258 244 296 244C336 244 366 152 404 152C444 152 470 218 516 218C540 218 554 204 564 188" stroke="#D5E3EA" stroke-width="3" stroke-linecap="round"/>
  <circle cx="404" cy="116" r="10" fill="#F18F1F"/>
  <circle cx="516" cy="254" r="8" fill="#009FDF"/>
  <rect x="430" y="82" width="124" height="52" rx="20" fill="#0F1722"/>
  <text x="452" y="105" fill="#F4FBFF" font-family="Arial, sans-serif" font-size="11" font-weight="700">Adaptive detection</text>
  <text x="452" y="123" fill="#C8D8E2" font-family="Arial, sans-serif" font-size="12">Threshold-free</text>
</svg>
