<svg width="640" height="420" viewBox="0 0 640 420" fill="none" xmlns="http://www.w3.org/2000/svg">
  <rect x="10" y="10" width="620" height="400" rx="30" fill="#F9FBFC" stroke="#D7E4EC"/>
  <rect x="64" y="174" width="128" height="72" rx="24" fill="#FFFFFF" stroke="#D7E4EC"/>
  <text x="92" y="203" fill="#009FDF" font-family="Arial, sans-serif" font-size="12" font-weight="700">Finding</text>
  <text x="92" y="224" fill="#102331" font-family="Arial, sans-serif" font-size="13">Cooling anomaly</text>
  <path d="M192 210H258" stroke="#009FDF" stroke-width="3" stroke-linecap="round"/>
  <path d="M258 210H324" stroke="#009FDF" stroke-width="3" stroke-linecap="round"/>
  <path d="M324 210H390" stroke="#009FDF" stroke-width="3" stroke-linecap="round"/>
  <rect x="258" y="90" width="120" height="56" rx="22" fill="#FFFFFF" stroke="#D7E4EC"/>
  <rect x="258" y="182" width="120" height="56" rx="22" fill="#FFFFFF" stroke="#D7E4EC"/>
  <rect x="258" y="274" width="120" height="56" rx="22" fill="#FFFFFF" stroke="#D7E4EC"/>
  <text x="296" y="124" fill="#102331" font-family="Arial, sans-serif" font-size="13" font-weight="700">Review</text>
  <text x="296" y="216" fill="#102331" font-family="Arial, sans-serif" font-size="13" font-weight="700">Notify</text>
  <text x="308" y="308" fill="#102331" font-family="Arial, sans-serif" font-size="13" font-weight="700">Act</text>
  <path d="M378 118H426" stroke="#F18F1F" stroke-width="3" stroke-linecap="round"/>
  <path d="M378 210H426" stroke="#F18F1F" stroke-width="3" stroke-linecap="round"/>
  <path d="M378 302H426" stroke="#F18F1F" stroke-width="3" stroke-linecap="round"/>
  <rect x="426" y="134" width="148" height="152" rx="28" fill="#EAF5FA" stroke="#D0E2EC"/>
  <text x="454" y="166" fill="#009FDF" font-family="Arial, sans-serif" font-size="13" font-weight="700">Action queue</text>
  <rect x="454" y="188" width="92" height="14" rx="7" fill="#009FDF" fill-opacity="0.18"/>
  <rect x="454" y="214" width="78" height="14" rx="7" fill="#102331" fill-opacity="0.1"/>
  <rect x="454" y="240" width="110" height="14" rx="7" fill="#F18F1F" fill-opacity="0.18"/>
</svg>
