<svg width="640" height="420" viewBox="0 0 640 420" fill="none" xmlns="http://www.w3.org/2000/svg">
  <rect x="10" y="10" width="620" height="400" rx="30" fill="#F9FBFC" stroke="#D7E4EC"/>
  <rect x="56" y="84" width="244" height="232" rx="28" fill="#FFFFFF" stroke="#D7E4EC"/>
  <rect x="82" y="118" width="58" height="118" rx="18" fill="#EAF5FA" stroke="#D0E2EC"/>
  <rect x="152" y="154" width="58" height="82" rx="18" fill="#EAF5FA" stroke="#D0E2EC"/>
  <rect x="222" y="134" width="46" height="102" rx="16" fill="#EAF5FA" stroke="#D0E2EC"/>
  <path d="M94 250H270" stroke="#D7E4EC" stroke-width="2"/>
  <path d="M110 92V66" stroke="#009FDF" stroke-width="3" stroke-linecap="round"/>
  <path d="M180 92V52" stroke="#009FDF" stroke-width="3" stroke-linecap="round"/>
  <path d="M245 92V74" stroke="#F18F1F" stroke-width="3" stroke-linecap="round"/>
  <circle cx="180" cy="52" r="8" fill="#F18F1F"/>
  <rect x="340" y="84" width="244" height="232" rx="28" fill="#F8FBFD" stroke="#D7E4EC"/>
  <text x="374" y="122" fill="#009FDF" font-family="Arial, sans-serif" font-size="14" font-weight="700">Operational drift</text>
  <path d="M374 178C396 164 416 170 438 156C460 142 480 154 502 136C516 124 530 118 550 124" stroke="#C9D6DE" stroke-width="2.5" stroke-linecap="round"/>
  <path d="M374 194C396 180 416 186 438 172C460 158 480 170 502 152C516 140 530 134 550 140" stroke="#D6E5EE" stroke-width="2.5" stroke-linecap="round"/>
  <path d="M374 212C396 198 416 204 438 190C460 176 480 188 502 170C516 158 530 152 550 158" stroke="#009FDF" stroke-width="3" stroke-linecap="round"/>
  <circle cx="502" cy="170" r="7" fill="#F18F1F"/>
  <rect x="374" y="238" width="176" height="54" rx="18" fill="#FFFFFF" stroke="#D7E4EC"/>
  <text x="396" y="261" fill="#102331" font-family="Arial, sans-serif" font-size="12" font-weight="700">Line 03 anomaly</text>
  <text x="396" y="279" fill="#7B8792" font-family="Arial, sans-serif" font-size="11">Temperature and vibration diverged</text>
  <text x="78" y="356" fill="#102331" font-family="Arial, sans-serif" font-size="13" font-weight="700">Production lines</text>
  <text x="226" y="356" fill="#102331" font-family="Arial, sans-serif" font-size="13" font-weight="700">Equipment</text>
  <text x="376" y="356" fill="#102331" font-family="Arial, sans-serif" font-size="13" font-weight="700">Quality signals</text>
</svg>
