<svg width="640" height="420" viewBox="0 0 640 420" fill="none" xmlns="http://www.w3.org/2000/svg">
  <rect x="10" y="10" width="620" height="400" rx="30" fill="#F9FBFC" stroke="#D7E4EC"/>
  <rect x="52" y="62" width="536" height="296" rx="28" fill="#FFFFFF" stroke="#D7E4EC"/>
  <path d="M84 282C124 282 154 246 194 246C236 246 260 286 302 286C344 286 368 170 410 170C442 170 466 208 490 228" stroke="#009FDF" stroke-width="5" stroke-linecap="round"/>
  <path d="M490 228C520 202 548 176 574 134" stroke="#009FDF" stroke-width="5" stroke-linecap="round" stroke-dasharray="10 10"/>
  <path d="M490 228C520 238 548 256 574 290" stroke="#009FDF" stroke-width="5" stroke-linecap="round" stroke-dasharray="10 10"/>
  <path d="M490 228C524 210 548 198 574 170" stroke="#F18F1F" stroke-width="2.5" stroke-linecap="round"/>
  <path d="M490 228L574 134L574 290Z" fill="#009FDF" fill-opacity="0.12"/>
  <rect x="378" y="96" width="128" height="48" rx="20" fill="#0F1722"/>
  <text x="400" y="117" fill="#F4FBFF" font-family="Arial, sans-serif" font-size="11" font-weight="700">Projected range</text>
  <text x="400" y="134" fill="#C5D6E1" font-family="Arial, sans-serif" font-size="12">Next 18 hours</text>
</svg>
