<svg width="640" height="420" viewBox="0 0 640 420" fill="none" xmlns="http://www.w3.org/2000/svg">
  <rect x="10" y="10" width="620" height="400" rx="30" fill="#F8FBFD" stroke="#D7E4EC"/>
  <rect x="52" y="60" width="536" height="300" rx="28" fill="#FFFFFF" stroke="#D7E4EC"/>
  <path d="M82 122H562" stroke="#D9E7EE" stroke-width="2"/>
  <path d="M82 196H562" stroke="#D9E7EE" stroke-width="2"/>
  <path d="M82 270H562" stroke="#D9E7EE" stroke-width="2"/>
  <path d="M82 122C142 122 156 156 214 156C272 156 286 94 344 94C402 94 416 170 474 170C516 170 540 154 562 138" stroke="#009FDF" stroke-width="5" stroke-linecap="round"/>
  <path d="M82 196C142 196 156 210 214 210C272 210 286 164 344 164C402 164 416 242 474 242C516 242 540 226 562 212" stroke="#009FDF" stroke-width="5" stroke-linecap="round"/>
  <path d="M82 270C142 270 156 294 214 294C272 294 286 248 344 248C402 248 416 318 474 318C516 318 540 302 562 286" stroke="#F18F1F" stroke-width="5" stroke-linecap="round"/>
  <rect x="444" y="84" width="118" height="54" rx="20" fill="#0F1722"/>
  <text x="466" y="107" fill="#F4FBFF" font-family="Arial, sans-serif" font-size="11" font-weight="700">Streaming live</text>
  <text x="466" y="125" fill="#C8D8E2" font-family="Arial, sans-serif" font-size="12">DAQ + task workers</text>
</svg>
